Coordinates																																									
version=1																																									
nRows=21																																									
nColumns=42																																									
inDegrees=yes																																									
																																									
"Units are S.I. units (second, meters, Newtons, ...)"																																									
Angles are in degrees.																																									
																																									
endheader																																									
time	pelvis_tx	pelvis_ty	pelvis_tz	pelvis_tilt	pelvis_list	pelvis_rotation	hip_flexion_r	hip_adduction_r	hip_rotation_r	knee_angle_r	ankle_angle_r	subtalar_angle_r	mtp_angle_r	hip_flexion_l	hip_adduction_l	hip_rotation_l	knee_angle_l	ankle_angle_l	subtalar_angle_l	mtp_angle_l	lumbar_extension	lumbar_bending	lumbar_rotation	ground_force_vx	ground_force_vy	ground_force_vz	ground_force_px	ground_force_py	ground_force_pz	ground_force_vx	ground_force_vy	ground_force_vz	ground_force_px	ground_force_py	ground_force_pz	ground_torque_x	ground_torque_y	ground_torque_z	ground_torque_x	ground_torque_y	ground_torque_z
1.74	-0.137089	0.712056	0.139397	7.115869	-3.513211	83.131523	18.974377	7.464498	7.811149	-30.936587	22.339718	0	0	-8.083398	-9.414145	28.345686	-38.091958	9.516282	0	0	26.763302	0.525647	-15.803818	-36.360992	292.617004	24.061716	-0.027692	-0.000024	0.16357	7.922233	99.549538	4.95094	-0.320837	0.001119	0.343886	-0.000376	-0.035803	0.000571	-0.000091	0.217038	-0.000516
1.75	-0.132997	0.711207	0.130997	7.700852	-4.663931	83.803001	19.149016	8.037247	6.192965	-30.421861	22.543777	0	0	-6.322072	-10.452264	26.728228	-39.523559	8.086636	0	0	27.963518	0.866535	-17.555823	-39.10854	311.15506	21.18535	-0.027148	-0.000411	0.162787	5.211784	81.354568	7.354043	-0.320092	0.001012	0.336496	-0.001195	-0.113774	0.001813	-0.00001	0.024843	-0.000059
1.76	-0.128807	0.710739	0.122644	8.223893	-5.692704	84.433868	19.12386	8.580687	4.737244	-29.761094	22.725518	0	0	-4.767796	-11.385148	25.106693	-40.819335	6.722921	0	0	29.038307	1.147417	-19.207955	-40.5504	320.218323	16.975679	-0.026691	-0.000661	0.162057	2.631435	64.030731	9.387171	-0.319902	0.001233	0.327546	-0.002091	-0.19898	0.003171	0.000079	-0.188137	0.000448
1.77	-0.124569	0.710818	0.114409	8.640645	-6.508741	85.005722	18.791191	9.051515	3.508876	-28.908902	22.870895	0	0	-3.52139	-12.13626	23.54565	-41.891183	5.51664	0	0	29.888795	1.329161	-20.670729	-40.734978	320.09787	11.774202	-0.026224	-0.00075	0.161437	0.452502	48.42511	10.705786	-0.320426	0.001538	0.315885	-0.003066	-0.291834	0.004651	0.00017	-0.405665	0.000965
1.78	-0.12036	0.711486	0.106345	8.924728	-7.074158	85.525688	18.113535	9.412247	2.495317	-27.850153	22.969093	0	0	-2.598825	-12.666642	22.077675	-42.707322	4.547263	0	0	30.465506	1.387824	-21.905458	-39.827431	311.930328	6.076706	-0.025655	-0.000686	0.160899	-1.152472	35.102966	11.025178	-0.322097	0.001739	0.300051	-0.004099	-0.390152	0.006218	0.000258	-0.615449	0.001464
1.79	-0.116253	0.712676	0.098492	9.059241	-7.404005	86.010834	17.126172	9.63421	1.649357	-26.60736	23.016406	0	0	-1.943875	-12.958769	20.719691	-43.278018	3.873154	0	0	30.770207	1.310824	-22.903813	-38.104733	297.444153	0.397454	-0.024921	-0.000496	0.160365	-2.147463	24.281214	10.267202	-0.325851	0.001737	0.277828	-0.005184	-0.493407	0.007864	0.00034	-0.812772	0.001934
1.8	-0.112319	0.71425	0.090882	9.041517	-7.543434	86.486137	15.906927	9.704368	0.907013	-25.229742	23.015752	0	0	-1.461833	-13.013605	19.493336	-43.641043	3.528242	0	0	30.835616	1.099675	-23.680792	-35.932892	278.724365	-4.855887	-0.023988	-0.000214	0.159732	0	0	0	0	0	0	-0.006358	-0.605089	0.009644	0	0	0
1.81	-0.108626	0.716051	0.083533	8.889839	-7.542248	86.986282	14.539326	9.630358	0.195057	-23.773891	22.973671	0	0	-1.052352	-12.853009	18.434148	-43.850504	3.520641	0	0	30.702407	0.773084	-24.272272	-33.717339	258.019531	-9.430853	-0.022827	0.000125	0.158898	0	0	0	0	0	0	-0.00769	-0.731864	0.011664	0	0	0
1.82	-0.105228	0.71793	0.076447	8.637136	-7.445185	87.544968	13.096702	9.437257	-0.550149	-22.293095	22.899422	0	0	-0.627285	-12.511563	17.584098	-43.965559	3.830079	0	0	30.410803	0.361421	-24.723044	-31.807722	237.539444	-13.211802	-0.021403	0.000491	0.15778	0	0	0	0	0	0	-0.009242	-0.879633	0.014019	0	0	0
1.83	-0.102146	0.719747	0.069619	8.316405	-7.29895	88.180473	11.651311	9.155727	-1.368985	-20.840044	22.808175	0	0	-0.108894	-12.020704	16.980071	-44.042723	4.408846	0	0	30.007832	-0.104391	-25.071229	-30.422215	219.249695	-16.167086	-0.01968	0.000857	0.156334	0	0	0	0	0	0	-0.011037	-1.050459	0.016742	0	0	0
1.84	-0.09936	0.721368	0.063036	7.952628	-7.164729	88.886887	10.289595	8.814269	-2.271599	-19.4697	22.721591	0	0	0.581724	-11.401061	16.643504	-44.134087	5.190785	0	0	29.559717	-0.596376	-25.333918	-29.629347	204.679733	-18.332405	-0.017674	0.001203	0.154575	0	0	0	0	0	0	-0.013034	-1.240489	0.019771	0	0	0
1.85	-0.096816	0.72267	0.05668	7.564503	-7.113083	89.633041	9.103201	8.440656	-3.233077	-18.231209	22.662204	0	0	1.519204	-10.667868	16.570339	-44.284915	6.103568	0	0	29.146828	-1.086342	-25.501905	-29.373762	194.775024	-19.823736	-0.015517	0.00151	0.152593	0	0	0	0	0	0	-0.015116	-1.438682	0.022929	0	0	0
1.86	-0.094431	0.723577	0.050517	7.167023	-7.194239	90.369705	8.152002	8.062293	-4.203479	-17.155366	22.64764	0	0	2.743234	-9.838782	16.727862	-44.526539	7.078219	0	0	28.83419	-1.547704	-25.54878	-29.525059	189.880295	-20.823988	-0.013436	0.001765	0.150539	0	0	0	0	0	0	-0.017129	-1.630238	0.025982	0	0	0
1.87	-0.092105	0.724086	0.044495	6.771435	-7.407574	91.038513	7.428435	7.703121	-5.125255	-16.246107	22.687274	0	0	4.227164	-8.937293	17.059002	-44.86878	8.05587	0	0	28.641041	-1.959541	-25.44023	-29.922306	189.826111	-21.540094	-0.011653	0.001958	0.148594	0	0	0	0	0	0	-0.018928	-1.801508	0.028712	0	0	0
1.88	-0.089735	0.724259	0.03855	6.385212	-7.703993	91.579651	6.861145	7.38198	-5.941576	-15.480588	22.780132	0	0	5.885078	-7.992605	17.4915	-45.300991	8.992793	0	0	28.541457	-2.307097	-25.13748	-30.410578	194.024826	-22.157625	-0.010282	0.002091	0.146895	0	0	0	0	0	0	-0.020407	-1.942259	0.030955	0	0	0
1.89	-0.087229	0.724185	0.032616	6.012889	-8.023441	91.941956	6.362251	7.111526	-6.603818	-14.821572	22.916461	0	0	7.621631	-7.036862	17.952859	-45.803515	9.862831	0	0	28.497656	-2.58169	-24.6052	-30.864799	201.58432	-22.81032	-0.009291	0.002174	0.145505	0	0	0	0	0	0	-0.021502	-2.046491	0.032616	0	0	0
1.9	-0.084522	0.723937	0.026643	5.654122	-8.32703	92.09111	5.870284	6.893468	-7.08368	-14.23457	23.084562	0	0	9.3729	-6.097861	18.38572	-46.355934	10.654735	0	0	28.488441	-2.783568	-23.821214	-31.210716	211.433411	-23.565617	-0.008552	0.002218	0.144407	0	0	0	0	0	0	-0.022189	-2.111827	0.033658	0	0	0
1.91	-0.081579	0.72357	0.020598	5.301462	-8.597017	92.012215	5.353047	6.715782	-7.379392	-13.695024	23.276108	0	0	11.105647	-5.19313	18.755817	-46.93637	11.366304	0	0	28.508291	-2.923928	-22.781153	-31.438847	222.453232	-24.434752	-0.00792	0.002235	0.143528	0	0	0	0	0	0	-0.022478	-2.139327	0.034096	0	0	0
1.92	-0.078399	0.723128	0.014458	4.944169	-8.82397	91.710655	4.792223	6.5586	-7.513103	-13.185525	23.485513	0	0	12.802001	-4.332478	19.052936	-47.52098	12.000479	0	0	28.554846	-3.021382	-21.501488	-31.586922	233.60141	-25.38452	-0.007294	0.002232	0.142758	0	0	0	0	0	0	-0.022408	-2.132666	0.03399	0	0	0
1.93	-0.075009	0.722645	0.008213	4.573238	-9.003258	91.209641	4.179039	6.40168	-7.521025	-12.694728	23.708533	0	0	14.454897	-3.522398	19.286888	-48.086437	12.563202	0	0	28.625359	-3.096428	-20.01827	-31.691162	244.008636	-26.345125	-0.006631	0.002214	0.141993	0	0	0	0	0	0	-0.022031	-2.09684	0.033419	0	0	0
1.94	-0.071451	0.722141	0.001868	4.18213	-9.136367	90.541489	3.516287	6.22727	-7.437617	-12.219268	23.942422	0	0	16.066787	-2.766809	19.478509	-48.61116	13.060986	0	0	28.718312	-3.167739	-18.377631	-31.746855	253.041931	-27.242882	-0.005924	0.002189	0.141153	0	0	0	0	0	0	-0.02139	-2.035808	0.032446	0	0	0
